<svg data-name="Livello 1" xmlns="http://www.w3.org/2000/svg" width="380.2" height="377.739"><defs><clipPath id="a"><path fill="none" d="M0 0h380.2v377.739H0z"/></clipPath></defs><g clip-path="url(#a)"><path d="M0 0v377.739h306.624c40.564 0 73.576-33.021 73.576-73.589V0H0z" fill="#002855"/><path fill="#fff" d="m46.495 322.347 21.46-.099V291.01h21.336v-18.305H67.955v-18.558h29.416l6.05-19.694H46.495v87.894zM168.518 279.838a23.667 23.667 0 0 0 7.385-11.487 25.411 25.411 0 0 0 1.01-7.134c0-9.089-2.989-15.822-8.964-20.199-5.977-4.376-14.477-6.565-25.5-6.565h-24.87v87.707l21.222-.046.239-39.94h.252l24.088 39.884h25.464l-25.945-38.874c2.02-.757 3.892-1.872 5.617-3.345m-14.265-9.216c-.801 1.64-1.853 2.946-3.156 3.914-1.306.968-2.798 1.641-4.482 2.02a22.87 22.87 0 0 1-5.049.568h-1.263c-.422 0-.842-.042-1.262-.126v-24.238h2.839c.884 0 1.746.043 2.589.126 4.207.422 7.088 1.683 8.647 3.786 1.557 2.105 2.336 4.672 2.336 7.701 0 2.526-.4 4.609-1.199 6.249M102.268 181.29l-55.421-60.471-.377-.126v90.138l12.37-.059v-60.033l55.42 59.907.38.126v-88.305l-12.372-.085v58.908zM217.507 210.817l12.373.379v-77.772h20.667v-11.362h-53.592l-.118 11.362h20.67v77.393zM270.4 166.665l30.267 44.104h16.26l-28.6-39.81c5.89-1.347 10.561-3.808 14.014-7.386 3.45-3.577 5.175-8.649 5.175-15.213 0-4.459-.757-8.332-2.272-11.614-1.514-3.282-3.577-6.015-6.185-8.204-2.61-2.189-5.641-3.808-9.091-4.861-3.451-1.051-7.113-1.578-10.982-1.578h-21.209l.606 88.667h12.368l-.603-44.104h.252zm-.252-33.203h9.216c2.187 0 4.23.295 6.123.884 1.893.59 3.554 1.474 4.987 2.651 1.43 1.18 2.567 2.715 3.409 4.609.839 1.894 1.262 4.145 1.262 6.753 0 2.357-.441 4.483-1.325 6.377-.883 1.893-2.063 3.513-3.535 4.859-1.473 1.347-3.177 2.398-5.112 3.155a16.158 16.158 0 0 1-5.933 1.137h-9.091v-30.425zM321.135 122.71h12.373v88.058h-12.373zM177.388 181.16h-.018c.001.093.014.181.014.275 0 10.164-8.24 18.403-18.404 18.403s-18.405-8.239-18.405-18.403c0-.094.013-.182.014-.275h-.009v-58.717h-12.225v58.717h-.001c-.001.092-.008.182-.008.275 0 16.89 13.742 30.631 30.632 30.631s30.632-13.741 30.632-30.631c0-.087-.004-.171-.005-.258h.008v-58.734h-12.225v58.717zM222.947 286.088h22.344v-18.306h-22.344v-14.265h29.147l6.007-18.91-56.615-.153v87.774h56.518l.158-19.888h-35.215v-16.252zM298.695 302.341v-16.253h22.345v-18.306h-22.345v-14.265h29.147l6.007-18.91-56.615-.153v87.773h56.518l.159-19.886h-35.216z"/></g></svg>